<?xml version="1.0" encoding="UTF-8" standalone="no"?>
<!-- Created with Inkscape (http://www.inkscape.org/) -->

<svg
   xmlns:dc="http://purl.org/dc/elements/1.1/"
   xmlns:cc="http://creativecommons.org/ns#"
   xmlns:rdf="http://www.w3.org/1999/02/22-rdf-syntax-ns#"
   xmlns:svg="http://www.w3.org/2000/svg"
   xmlns="http://www.w3.org/2000/svg"
   xmlns:sodipodi="http://sodipodi.sourceforge.net/DTD/sodipodi-0.dtd"
   xmlns:inkscape="http://www.inkscape.org/namespaces/inkscape"
   id="svg2"
   version="1.1"
   inkscape:version="0.91 r13725"
   width="32"
   height="32"
   viewBox="0 0 32 32"
   sodipodi:docname="close-window.svg">
  <metadata
     id="metadata8">
    <rdf:RDF>
      <cc:Work
         rdf:about="">
        <dc:format>image/svg+xml</dc:format>
        <dc:type
           rdf:resource="http://purl.org/dc/dcmitype/StillImage" />
        <dc:title></dc:title>
      </cc:Work>
    </rdf:RDF>
  </metadata>
  <defs
     id="defs6" />
  <sodipodi:namedview
     pagecolor="#ffffff"
     bordercolor="#666666"
     borderopacity="1"
     objecttolerance="10"
     gridtolerance="10"
     guidetolerance="10"
     inkscape:pageopacity="0"
     inkscape:pageshadow="2"
     inkscape:window-width="1366"
     inkscape:window-height="703"
     id="namedview4"
     showgrid="false"
     inkscape:zoom="7.375"
     inkscape:cx="17.355932"
     inkscape:cy="16"
     inkscape:window-x="0"
     inkscape:window-y="0"
     inkscape:window-maximized="1"
     inkscape:current-layer="svg2" />
  <g
     transform="matrix(0.37810956,0,0,0.37810956,0.47828239,0.39306621)"
     id="g3338"
     style="fill:#ffffff;fill-opacity:1">
    <path
       style="fill-opacity:1;fill:#ffffff"
       d="m 10.8,67.737994 c 0,-4.248997 0.03361,-4.295689 11.011494,-15.3 L 32.822988,41.399999 21.811494,30.362003 C 10.833604,19.357692 10.8,19.311001 10.8,15.062003 l 0,-4.262003 4.262003,0 c 4.248998,0 4.295689,0.03361 15.3,11.011494 L 41.399999,32.822988 52.437994,21.811494 C 63.07499,11.200037 63.614477,10.8 67.287994,10.8 l 3.812003,0 0,4.711481 0,4.711483 -10.56093,10.588517 -10.560931,10.588518 10.560931,10.588517 10.56093,10.588517 0,4.711483 0,4.711481 -3.812003,0 c -3.673517,0 -4.213004,-0.400037 -14.85,-11.011494 L 41.399999,49.977009 30.362003,60.988503 c -11.004311,10.97789 -11.051002,11.011494 -15.3,11.011494 l -4.262003,0 0,-4.262003 z"
       id="path3348"
       inkscape:connector-curvature="0" />
    <path
       style="fill-opacity:1;fill:#ffffff"
       d="m 10.8,67.737994 c 0,-4.248997 0.03361,-4.295689 11.011494,-15.3 L 32.822988,41.399999 21.811494,30.362003 C 10.833604,19.357692 10.8,19.311001 10.8,15.062003 l 0,-4.262003 4.262003,0 c 4.248998,0 4.295689,0.03361 15.3,11.011494 L 41.399999,32.822988 52.437994,21.811494 C 63.07499,11.200037 63.614477,10.8 67.287994,10.8 l 3.812003,0 0,4.711481 0,4.711483 -10.56093,10.588517 -10.560931,10.588518 10.560931,10.588517 10.56093,10.588517 0,4.711483 0,4.711481 -3.812003,0 c -3.673517,0 -4.213004,-0.400037 -14.85,-11.011494 L 41.399999,49.977009 30.362003,60.988503 c -11.004311,10.97789 -11.051002,11.011494 -15.3,11.011494 l -4.262003,0 0,-4.262003 z"
       id="path3346"
       inkscape:connector-curvature="0" />
    <path
       style="fill-opacity:1;fill:#ffffff"
       d="m 10.8,67.737994 c 0,-4.248997 0.03361,-4.295689 11.011494,-15.3 L 32.822988,41.399999 21.811494,30.362003 C 10.833604,19.357692 10.8,19.311001 10.8,15.062003 l 0,-4.262003 4.262003,0 c 4.248998,0 4.295689,0.03361 15.3,11.011494 L 41.399999,32.822988 52.437994,21.811494 C 63.07499,11.200037 63.614477,10.8 67.287994,10.8 l 3.812003,0 -8.04e-4,4.274999 c -7.98e-4,4.240125 -0.08523,4.361074 -10.35,14.826047 -5.692057,5.803076 -10.349195,11.074682 -10.349195,11.714681 0,0.639998 4.6575,5.80792 10.35,11.484271 10.308786,10.279541 10.349999,10.337719 10.349999,14.610319 l 0,4.28968 -3.812003,0 c -3.673517,0 -4.213004,-0.400037 -14.85,-11.011494 L 41.399999,49.977009 30.362003,60.988503 c -11.004311,10.97789 -11.051002,11.011494 -15.3,11.011494 l -4.262003,0 0,-4.262003 z"
       id="path3344"
       inkscape:connector-curvature="0" />
    <path
       style="fill-opacity:1;fill:#ffffff"
       d="m 11.7,67.260317 c 0,-3.698687 0.380055,-4.218658 10.349999,-14.160319 5.6925,-5.676351 10.35,-10.941351 10.35,-11.699999 0,-0.758649 -4.6575,-6.023649 -10.35,-11.7 C 12.080055,19.758338 11.7,19.238367 11.7,15.53968 l 0,-3.83968 3.83968,0 c 3.698687,0 4.218658,0.380055 14.160319,10.349999 5.676351,5.6925 10.941351,10.35 11.7,10.35 0.758648,0 6.023648,-4.6575 11.699999,-10.35 C 63.041659,12.080055 63.56163,11.7 67.260317,11.7 l 3.83968,0 0,3.83968 c 0,3.699968 -0.377582,4.215749 -10.376923,14.175 -6.368705,6.343172 -10.279614,10.920437 -10.124999,11.850141 0.138557,0.833151 4.808173,6.183193 10.376923,11.888981 9.517316,9.751524 10.124999,10.592388 10.124999,14.010178 l 0,3.636017 -3.83968,0 c -3.698687,0 -4.218658,-0.380055 -14.160319,-10.349999 -5.676351,-5.6925 -10.941351,-10.35 -11.699999,-10.35 -0.758649,0 -6.023649,4.6575 -11.7,10.35 -9.941661,9.969944 -10.461632,10.349999 -14.160319,10.349999 l -3.83968,0 0,-3.83968 z"
       id="path3342"
       inkscape:connector-curvature="0" />
    <path
       style="fill-opacity:1;fill:#ffffff"
       d="m 11.7,67.260317 c 0,-3.698687 0.380055,-4.218658 10.349999,-14.160319 5.6925,-5.676351 10.35,-10.941351 10.35,-11.699999 0,-0.758649 -4.6575,-6.023649 -10.35,-11.7 C 12.080055,19.758338 11.7,19.238367 11.7,15.53968 l 0,-3.83968 3.83968,0 c 3.698687,0 4.218658,0.380055 14.160319,10.349999 5.676351,5.6925 10.941351,10.35 11.7,10.35 0.758648,0 6.023648,-4.6575 11.699999,-10.35 C 63.041659,12.080055 63.56163,11.7 67.260317,11.7 l 3.83968,0 0,3.83968 c 0,3.699968 -0.377582,4.215749 -10.376923,14.175 -6.368705,6.343172 -10.279614,10.920437 -10.124999,11.850141 0.138557,0.833151 4.808173,6.183193 10.376923,11.888981 9.517316,9.751524 10.124999,10.592388 10.124999,14.010178 l 0,3.636017 -3.83968,0 c -3.698687,0 -4.218658,-0.380055 -14.160319,-10.349999 -5.676351,-5.6925 -10.941351,-10.35 -11.699999,-10.35 -0.758649,0 -6.023649,4.6575 -11.7,10.35 -9.941661,9.969944 -10.461632,10.349999 -14.160319,10.349999 l -3.83968,0 0,-3.83968 z"
       id="path3340"
       inkscape:connector-curvature="0" />
  </g>
</svg>
