<?xml version="1.0" encoding="UTF-8" standalone="no"?>
<!-- Created with Inkscape (http://www.inkscape.org/) -->

<svg
   xmlns:dc="http://purl.org/dc/elements/1.1/"
   xmlns:cc="http://creativecommons.org/ns#"
   xmlns:rdf="http://www.w3.org/1999/02/22-rdf-syntax-ns#"
   xmlns:svg="http://www.w3.org/2000/svg"
   xmlns="http://www.w3.org/2000/svg"
   xmlns:sodipodi="http://sodipodi.sourceforge.net/DTD/sodipodi-0.dtd"
   xmlns:inkscape="http://www.inkscape.org/namespaces/inkscape"
   id="svg2"
   version="1.1"
   inkscape:version="0.91 r13725"
   width="21"
   height="21"
   viewBox="0 0 21 21"
   sodipodi:docname="rest-icon.svg">
  <metadata
     id="metadata8">
    <rdf:RDF>
      <cc:Work
         rdf:about="">
        <dc:format>image/svg+xml</dc:format>
        <dc:type
           rdf:resource="http://purl.org/dc/dcmitype/StillImage" />
        <dc:title></dc:title>
      </cc:Work>
    </rdf:RDF>
  </metadata>
  <defs
     id="defs6" />
  <sodipodi:namedview
     pagecolor="#ffffff"
     bordercolor="#666666"
     borderopacity="1"
     objecttolerance="10"
     gridtolerance="10"
     guidetolerance="10"
     inkscape:pageopacity="0"
     inkscape:pageshadow="2"
     inkscape:window-width="1366"
     inkscape:window-height="706"
     id="namedview4"
     showgrid="false"
     inkscape:zoom="24.52381"
     inkscape:cx="10.5"
     inkscape:cy="10.5"
     inkscape:window-x="0"
     inkscape:window-y="38"
     inkscape:window-maximized="1"
     inkscape:current-layer="svg2" />
  <g
     id="g4142"
     style="fill:#00c64f;fill-opacity:1"
     transform="matrix(0.28717949,0,0,0.28717949,-0.67884617,0)">
    <path
       style="fill:#00c64f;fill-opacity:1"
       d="m 7.5,36.09375 0,-29.53125 31.40625,0 31.40625,0 0,29.53125 0,29.53125 -31.40625,0 -31.40625,0 0,-29.53125 z m 60.9375,-1.875 0,-25.78125 -29.53125,0 -29.53125,0 0,25.78125 0,25.78125 29.53125,0 29.53125,0 0,-25.78125 z m -49.6875,-2.8125 0,-21.09375 23.4375,0 23.4375,0 0,21.09375 0,21.09375 -23.4375,0 -23.4375,0 0,-21.09375 z m 43.125,1.875 0,-15.46875 -19.21875,0 -19.21875,0 0,15.46875 0,15.46875 19.21875,0 19.21875,0 0,-15.46875 z"
       id="path4154"
       inkscape:connector-curvature="0" />
    <path
       style="fill:#00c64f;fill-opacity:1"
       d="m 7.5,36.09375 0,-29.53125 31.40625,0 31.40625,0 0,29.53125 0,29.53125 -31.40625,0 -31.40625,0 0,-29.53125 z m 60.9375,-1.875 0,-25.78125 -29.53125,0 -29.53125,0 0,25.78125 0,25.78125 29.53125,0 29.53125,0 0,-25.78125 z m -49.6875,-2.8125 0,-21.09375 23.4375,0 23.4375,0 0,21.09375 0,21.09375 -23.4375,0 -23.4375,0 0,-21.09375 z m 43.125,1.875 0,-15.46875 -19.21875,0 -19.21875,0 0,15.46875 0,15.46875 19.21875,0 19.21875,0 0,-15.46875 z"
       id="path4152"
       inkscape:connector-curvature="0" />
    <path
       style="fill:#00c64f;fill-opacity:1"
       d="m 7.5,36.09375 0,-29.53125 31.40625,0 31.40625,0 0,29.53125 0,29.53125 -31.40625,0 -31.40625,0 0,-29.53125 z m 60.9375,-1.875 0,-25.78125 -29.53125,0 -29.53125,0 0,25.78125 0,25.78125 29.53125,0 29.53125,0 0,-25.78125 z m -49.6875,-2.8125 0,-21.09375 23.4375,0 23.4375,0 0,21.09375 0,21.09375 -23.4375,0 -23.4375,0 0,-21.09375 z m 43.125,1.875 0,-15.46875 -19.6875,0 -19.6875,0 0,15.46875 0,15.46875 19.6875,0 19.6875,0 0,-15.46875 z"
       id="path4150"
       inkscape:connector-curvature="0" />
    <path
       style="fill:#00c64f;fill-opacity:1"
       d="m 7.5,36.09375 0,-29.53125 31.40625,0 31.40625,0 0,29.53125 0,29.53125 -31.40625,0 -31.40625,0 0,-29.53125 z m 60.9375,-1.875 0,-25.78125 -29.53125,0 -29.53125,0 0,25.78125 0,25.78125 29.53125,0 29.53125,0 0,-25.78125 z m -49.6875,-2.8125 0,-21.09375 23.4375,0 23.4375,0 0,21.09375 0,21.09375 -23.4375,0 -23.4375,0 0,-21.09375 z m 43.125,1.875 0,-15.46875 -19.6875,0 -19.6875,0 0,15.46875 0,15.46875 19.6875,0 19.6875,0 0,-15.46875 z"
       id="path4148"
       inkscape:connector-curvature="0" />
    <path
       style="fill:#00c64f;fill-opacity:1"
       d="m 7.5,36.09375 0,-29.53125 31.40625,0 31.40625,0 0,29.53125 0,29.53125 -31.40625,0 -31.40625,0 0,-29.53125 z m 60.9375,-1.875 0,-25.78125 -29.53125,0 -29.53125,0 0,25.78125 0,25.78125 29.53125,0 29.53125,0 0,-25.78125 z m -49.6875,-2.8125 0,-21.09375 23.4375,0 23.4375,0 0,21.09375 0,21.09375 -23.4375,0 -23.4375,0 0,-21.09375 z m 43.125,1.875 0,-15.46875 -19.6875,0 -19.6875,0 0,15.46875 0,15.46875 19.6875,0 19.6875,0 0,-15.46875 z"
       id="path4146"
       inkscape:connector-curvature="0" />
    <path
       style="fill:#00c64f;fill-opacity:1"
       d="m 7.5,36.09375 0,-29.53125 31.40625,0 31.40625,0 0,29.53125 0,29.53125 -31.40625,0 -31.40625,0 0,-29.53125 z m 60.9375,-1.875 0,-25.78125 -29.53125,0 -29.53125,0 0,25.78125 0,25.78125 29.53125,0 29.53125,0 0,-25.78125 z M 18.815386,31.40625 18.66517,10.3125 l 23.479915,0 23.479915,0 0,21.09375 0,21.09375 -23.329699,0 -23.329699,0 -0.150216,-21.09375 z m 43.059614,1.875 0,-15.46875 -19.6875,0 -19.6875,0 0,15.46875 0,15.46875 19.6875,0 19.6875,0 0,-15.46875 z"
       id="path4144"
       inkscape:connector-curvature="0" />
  </g>
</svg>
